<?xml version="1.0" standalone="no"?><!DOCTYPE svg PUBLIC "-//W3C//DTD SVG 1.1//EN" "http://www.w3.org/Graphics/SVG/1.1/DTD/svg11.dtd"><svg t="1642771722499" class="icon" viewBox="0 0 1024 1024" version="1.1" xmlns="http://www.w3.org/2000/svg" p-id="1535" xmlns:xlink="http://www.w3.org/1999/xlink" width="200" height="200"><defs><style type="text/css"></style></defs><path d="M647.17 883.69H153.71a27.59 27.59 0 1 1 0-55.18h493.46c113.5 0 205.84-92.34 205.84-205.84s-92.34-205.84-205.84-205.84H200.86a27.6 27.6 0 1 1 0-55.19h446.31c69.46 0 134.94 27.22 184.37 76.65s76.65 114.91 76.65 184.38S881 757.61 831.54 807s-114.91 76.69-184.37 76.69z" fill="#142E4F" p-id="1536"></path><path d="M413.56 657.25a27.47 27.47 0 0 1-18.2-6.87L125.19 413a27.58 27.58 0 0 1 0.07-41.51l257.07-224.38a27.59 27.59 0 1 1 36.29 41.58L185.28 392.3l246.51 216.63a27.59 27.59 0 0 1-18.23 48.32z" fill="#FF9600" p-id="1537"></path></svg>