<?xml version="1.0" standalone="no"?><!DOCTYPE svg PUBLIC "-//W3C//DTD SVG 1.1//EN" "http://www.w3.org/Graphics/SVG/1.1/DTD/svg11.dtd"><svg t="1642771754382" class="icon" viewBox="0 0 1024 1024" version="1.1" xmlns="http://www.w3.org/2000/svg" p-id="1671" xmlns:xlink="http://www.w3.org/1999/xlink" width="200" height="200"><defs><style type="text/css"></style></defs><path d="M761.62 950.72H262.38c-50.08 0-90.81-42.09-90.81-93.82V227.8c0-51.73 40.73-93.82 90.81-93.82h52.05a27.6 27.6 0 1 1 0 55.19h-52.05c-19.65 0-35.63 17.33-35.63 38.63v629.1c0 21.3 16 38.63 35.63 38.63h499.24c19.65 0 35.63-17.33 35.63-38.63V227.8c0-21.3-16-38.63-35.63-38.63h-52a27.6 27.6 0 1 1 0-55.19h52c50.08 0 90.81 42.09 90.81 93.82v629.1c0 51.73-40.73 93.82-90.81 93.82z" fill="#142E4F" p-id="1672"></path><path d="M694.11 575.46H329.89a27.59 27.59 0 1 1 0-55.18h364.22a27.59 27.59 0 0 1 0 55.18zM694.11 404.39H329.89a27.59 27.59 0 1 1 0-55.18h364.22a27.59 27.59 0 1 1 0 55.18zM545.11 746.53H329.89a27.59 27.59 0 0 1 0-55.18h215.22a27.59 27.59 0 1 1 0 55.18z" fill="#FF9600" p-id="1673"></path><path d="M661.38 249.87H362.62a75.86 75.86 0 0 1-75.78-75.78v-25a75.87 75.87 0 0 1 75.78-75.78h298.76a75.87 75.87 0 0 1 75.78 75.78v25a75.86 75.86 0 0 1-75.78 75.78z m-298.76-121.4A20.6 20.6 0 0 0 342 149.06v25a20.61 20.61 0 0 0 20.59 20.6h298.79A20.61 20.61 0 0 0 682 174.09v-25a20.6 20.6 0 0 0-20.59-20.59z" fill="#142E4F" p-id="1674"></path></svg>