<?xml version="1.0" standalone="no"?><!DOCTYPE svg PUBLIC "-//W3C//DTD SVG 1.1//EN" "http://www.w3.org/Graphics/SVG/1.1/DTD/svg11.dtd"><svg t="1642771931695" class="icon" viewBox="0 0 1024 1024" version="1.1" xmlns="http://www.w3.org/2000/svg" p-id="1944" xmlns:xlink="http://www.w3.org/1999/xlink" width="200" height="200"><defs><style type="text/css"></style></defs><path d="M662.5 884.38a121.86 121.86 0 0 1-37.5-5.47c-0.65-0.13-1.29-0.27-1.93-0.44-6.16-1.64-39.57-11.38-92.36-41.71-64.45-37-129.64-88.31-193.76-152.43l-0.11-0.11C204.43 550.25 158.23 441 144.39 399.69c-8.11-20.36-9.75-45.07-4.61-69.7s16.55-47 32.16-63.13l0.31-0.31 57.69-57.7a88.73 88.73 0 0 1 62.14-26.12c26.12 0 51.73 12.87 68.5 34.44L445 325.8c18.84 23.95 21.08 61.92 5.19 88.39l-36.38 60.61c5.66 13.66 20 40.3 55 77.72 36.08 33.82 61.5 48.54 76.93 54.93L606 571.28c11.21-7 24.58-10.6 39.76-10.6 18.83 0 36.2 5.56 48.94 15.68l108.57 84.35 0.58 0.47c21 17.28 32.68 39.21 33.83 63.44 1.24 25.94-8.12 49.73-26.36 67l-56.59 56.59c-22.28 22.31-57.63 36.17-92.23 36.17z m-27.9-57.52a26.09 26.09 0 0 1 5.15 1.3c6.16 2.24 14 3.43 22.75 3.43 20.79 0 42.35-8.13 54.92-20.7L774.28 754l0.62-0.59c7.2-6.75 10.59-15.6 10.08-26.31-0.43-9-5.27-17.38-14.4-25L662.2 617.94l-0.3-0.23c-3.32-2.66-9.35-4.25-16.12-4.25-5.2 0-9 0.84-11.75 2.56-0.19 0.13-0.39 0.25-0.59 0.37L562.37 659a26.37 26.37 0 0 1-20.52 2.84c-31.16-8.5-69.13-33.21-109.81-71.46q-0.6-0.57-1.17-1.17c-53.87-57.41-68-96.86-71.57-111.16a26.39 26.39 0 0 1 3-20L404.91 387c4.7-7.82 4-21.72-1.43-28.59l-0.12-0.17-84.46-108.68c-6.84-8.79-16.86-14.05-26.82-14.05a36 36 0 0 0-24.81 10.67l-57.53 57.52c-17.81 18.55-25.36 54.4-16.15 76.85 0.22 0.55 0.43 1.11 0.62 1.67l0.08 0.26c9.71 29.16 51.39 134.39 180.07 264.58C435.17 707.87 496.63 756.29 557 791c42.2 24.22 70 33.54 77.6 35.86z" fill="#142E4F" p-id="1945"></path><path d="M782.22 580.34a26.4 26.4 0 0 1-18.81-44.91c77.81-79.07 76.91-206.84-2-284.82-79.09-78.14-207-77.37-285.13 1.72l-0.2 0.2a26.39 26.39 0 0 1-37.73-36.92l0.35-0.35A254.4 254.4 0 0 1 801 572.45a26.3 26.3 0 0 1-18.78 7.89z" fill="#FF9600" p-id="1946"></path><path d="M704.83 501.37A26.39 26.39 0 0 1 686.51 456a82.09 82.09 0 0 0-113.94-118.24l-0.41 0.4a26.4 26.4 0 0 1-36.57-38.08l0.39-0.37c53.53-51.57 139.09-50 190.69 3.59s50 139.08-3.52 190.68a26.3 26.3 0 0 1-18.32 7.39z" fill="#FF9600" p-id="1947"></path></svg>