<?xml version="1.0" standalone="no"?><!DOCTYPE svg PUBLIC "-//W3C//DTD SVG 1.1//EN" "http://www.w3.org/Graphics/SVG/1.1/DTD/svg11.dtd"><svg t="1642772623215" class="icon" viewBox="0 0 1024 1024" version="1.1" xmlns="http://www.w3.org/2000/svg" p-id="1535" xmlns:xlink="http://www.w3.org/1999/xlink" width="200" height="200"><defs><style type="text/css"></style></defs><path d="M354.34 498.48h-141.1A115 115 0 0 1 98.32 383.56v-141.1a115 115 0 0 1 114.92-114.91h141.1a115 115 0 0 1 114.91 114.91v141.1a115 115 0 0 1-114.91 114.92z m-141.1-318.15a62.2 62.2 0 0 0-62.13 62.13v141.1a62.2 62.2 0 0 0 62.13 62.13h141.1a62.2 62.2 0 0 0 62.13-62.13v-141.1a62.2 62.2 0 0 0-62.13-62.13z" fill="#142E4F" p-id="1536"></path><path d="M711 527.65a114.56 114.56 0 0 1-81.26-33.6L530 394.27a115 115 0 0 1 0-162.51L629.73 132a115 115 0 0 1 162.51 0L892 231.76a115 115 0 0 1 0 162.51l-99.78 99.78a114.54 114.54 0 0 1-81.22 33.6z m-43.93-70.93a62.2 62.2 0 0 0 87.86 0l99.77-99.78a62.18 62.18 0 0 0 0-87.86l-99.77-99.77a62.18 62.18 0 0 0-87.86 0l-99.78 99.77a62.2 62.2 0 0 0 0 87.86z" fill="#FF9600" p-id="1537"></path><path d="M781.54 925.68h-141.1a115 115 0 0 1-114.92-114.92v-141.1a115 115 0 0 1 114.92-114.92h141.1a115 115 0 0 1 114.91 114.92v141.1a115 115 0 0 1-114.91 114.92z m-141.1-318.15a62.2 62.2 0 0 0-62.13 62.13v141.1a62.2 62.2 0 0 0 62.13 62.13h141.1a62.2 62.2 0 0 0 62.13-62.13v-141.1a62.2 62.2 0 0 0-62.13-62.13zM354.34 925.68h-141.1A115 115 0 0 1 98.32 810.76v-141.1a115 115 0 0 1 114.92-114.92h141.1a115 115 0 0 1 114.91 114.92v141.1a115 115 0 0 1-114.91 114.92z m-141.1-318.15a62.2 62.2 0 0 0-62.13 62.13v141.1a62.2 62.2 0 0 0 62.13 62.13h141.1a62.2 62.2 0 0 0 62.13-62.13v-141.1a62.2 62.2 0 0 0-62.13-62.13z" fill="#142E4F" p-id="1538"></path></svg>