<?xml version="1.0" standalone="no"?><!DOCTYPE svg PUBLIC "-//W3C//DTD SVG 1.1//EN" "http://www.w3.org/Graphics/SVG/1.1/DTD/svg11.dtd"><svg t="1642771972095" class="icon" viewBox="0 0 1024 1024" version="1.1" xmlns="http://www.w3.org/2000/svg" p-id="2081" xmlns:xlink="http://www.w3.org/1999/xlink" width="200" height="200"><defs><style type="text/css"></style></defs><path d="M512 937.32a26.93 26.93 0 0 1-13.48-3.61l-345-199.18a27 27 0 0 1-13.47-23.34V312.81a27 27 0 0 1 13.47-23.34l345-199.18a26.94 26.94 0 0 1 27 0l345 199.18A27 27 0 0 1 884 312.81v398.38a27 27 0 0 1-13.47 23.34l-345 199.18a26.93 26.93 0 0 1-13.53 3.61z m-318-241.7l318 183.63 318-183.63V328.38L512 144.75 194 328.38z m663 15.57z" fill="#142E4F" p-id="2082"></path><path d="M512 684.5c-95.12 0-172.5-77.38-172.5-172.5S416.88 339.5 512 339.5 684.5 416.88 684.5 512 607.12 684.5 512 684.5z m0-291.09A118.59 118.59 0 1 0 630.59 512 118.73 118.73 0 0 0 512 393.41z" fill="#FF9600" p-id="2083"></path></svg>