<?xml version="1.0" standalone="no"?><!DOCTYPE svg PUBLIC "-//W3C//DTD SVG 1.1//EN" "http://www.w3.org/Graphics/SVG/1.1/DTD/svg11.dtd"><svg t="1643267481947" class="icon" viewBox="0 0 1131 1024" version="1.1" xmlns="http://www.w3.org/2000/svg" p-id="6026" xmlns:xlink="http://www.w3.org/1999/xlink" width="220.8984375" height="200"><defs><style type="text/css"></style></defs><path d="M365.891368 912.739705a53.894737 53.894737 0 1 1 0 107.789474 53.894737 53.894737 0 0 1 0-107.789474z m0 21.557895a32.336842 32.336842 0 1 0 0 64.673684 32.336842 32.336842 0 0 0 0-64.673684zM947.954526 912.739705a53.894737 53.894737 0 1 1 0 107.789474 53.894737 53.894737 0 0 1 0-107.789474z m0 21.557895a32.336842 32.336842 0 1 0 0 64.673684 32.336842 32.336842 0 0 0 0-64.673684zM1124.826274 222.887074L1006.3872 838.278737h-705.158737l-0.021558-1.940211L140.773053 24.802358H10.186105V2.285137h149.0944l43.611621 220.612716h921.923369z m-137.021979 592.842105L1098.482526 245.436632H207.343832l112.758568 570.314105h667.701895z" fill="#CBCCCD" p-id="6027"></path><path d="M762.772211 249.974568m-185.300885 0a185.300884 185.300884 0 1 0 370.601769 0 185.300884 185.300884 0 1 0-370.601769 0Z" fill="#EAEBEC" p-id="6028"></path><path d="M459.581979 431.341137l113.55621 113.55621-113.55621 113.556211-113.556211-113.556211z" fill="#EAEBEC" p-id="6029"></path></svg>