<?xml version="1.0" standalone="no"?><!DOCTYPE svg PUBLIC "-//W3C//DTD SVG 1.1//EN" "http://www.w3.org/Graphics/SVG/1.1/DTD/svg11.dtd"><svg t="1642771647194" class="icon" viewBox="0 0 1024 1024" version="1.1" xmlns="http://www.w3.org/2000/svg" p-id="1260" xmlns:xlink="http://www.w3.org/1999/xlink" width="200" height="200"><defs><style type="text/css"></style></defs><path d="M510.09 296.7H510l-157.46-0.4c-40.22-0.11-77.95-14.92-103.5-40.64-20.12-20.25-31.14-46-31-72.55 0.13-31.35 15.11-60.37 42.19-81.73 25.21-19.88 58.32-30.77 93.17-30.69 55.6 0.14 107.6 20.48 142.71 55.8 27.07 27.25 41.9 61.8 41.76 97.28l-0.19 45.45a27.6 27.6 0 0 1-27.59 27.48zM353 125.88c-22.37 0-43.16 6.68-58.57 18.83-13.61 10.73-21.13 24.45-21.19 38.62-0.06 15.1 8.12 26.52 15 33.44 15.08 15.18 39.19 24.28 64.5 24.34l129.9 0.33 0.07-17.89c0.11-26.56-13.93-46.29-25.72-58.17-24.84-25-62.64-39.4-103.71-39.5z" fill="#FF9600" p-id="1261"></path><path d="M675.06 296.7h-0.42l-157.46-0.4a27.59 27.59 0 0 1-27.52-27.71l0.18-45.44c0.17-42 20.41-81 57-109.81 34.56-27.26 80-42.25 128.06-42.25h0.58c40.23 0.1 78 14.92 103.51 40.64 20.12 20.25 31.14 46 31 72.55-0.13 31.34-15.11 60.37-42.19 81.72-25.1 19.8-58.03 30.7-92.74 30.7zM545 241.18l129.83 0.33h0.28c22.37 0 43.16-6.68 58.57-18.84 13.6-10.72 21.13-24.44 21.18-38.61 0.07-15.11-8.11-26.52-15-33.44-15.08-15.18-39.19-24.28-64.5-24.34h-0.45c-35.69 0-69 10.79-93.88 30.4-23.09 18.21-35.86 41.9-36 66.7z" fill="#FF9600" p-id="1262"></path><path d="M850.94 573.08H173.06A112.32 112.32 0 0 1 60.87 460.89V353.32a112.32 112.32 0 0 1 112.19-112.19h677.88a112.32 112.32 0 0 1 112.19 112.19v107.57a112.32 112.32 0 0 1-112.19 112.19zM173.06 296.31a57.08 57.08 0 0 0-57 57v107.58a57.08 57.08 0 0 0 57 57h677.88a57.08 57.08 0 0 0 57-57V353.32a57.08 57.08 0 0 0-57-57z" fill="#142E4F" p-id="1263"></path><path d="M758.72 953.31H265.28a112.3 112.3 0 0 1-112.14-112.19V545.49a27.59 27.59 0 0 1 27.59-27.59h662.54a27.59 27.59 0 0 1 27.59 27.59v295.63a112.3 112.3 0 0 1-112.14 112.19z m-550.4-380.23v268a57.05 57.05 0 0 0 57 57h493.4a57.05 57.05 0 0 0 57-57v-268z" fill="#142E4F" p-id="1264"></path><path d="M484.41 295.36h55.19v603.72h-55.19z" fill="#FF9600" p-id="1265"></path></svg>