<?xml version="1.0" standalone="no"?><!DOCTYPE svg PUBLIC "-//W3C//DTD SVG 1.1//EN" "http://www.w3.org/Graphics/SVG/1.1/DTD/svg11.dtd"><svg t="1642771687881" class="icon" viewBox="0 0 1024 1024" version="1.1" xmlns="http://www.w3.org/2000/svg" p-id="1399" xmlns:xlink="http://www.w3.org/1999/xlink" width="200" height="200"><defs><style type="text/css"></style></defs><path d="M772.21 892.5H228.5a89.85 89.85 0 0 1-89.74-89.74v-522.6a89.84 89.84 0 0 1 89.74-89.73h318.59a26.39 26.39 0 1 1 0 52.78H228.5a37 37 0 0 0-36.95 37v522.6a37 37 0 0 0 36.95 37h543.71a37 37 0 0 0 37-37V433.89a26.39 26.39 0 0 1 52.78 0v368.87a89.84 89.84 0 0 1-89.78 89.74z" fill="#142E4F" p-id="1400"></path><path d="M360.56 742.14a26.39 26.39 0 0 1-26.37-25.45l-3.73-104.31a26.4 26.4 0 0 1 6.46-18.26l394.46-453.55a26.41 26.41 0 0 1 37.24-2.57l107.54 93.53a26.4 26.4 0 0 1 2.6 37.24L484.29 722.3a26.41 26.41 0 0 1-17.19 8.93L363.29 742c-0.91 0.09-1.82 0.14-2.73 0.14zM464.38 705z m-80.79-84.07l2.34 65.67 65.37-6.78L821.61 254l-67.72-58.89z" fill="#FF9600" p-id="1401"></path></svg>