<?xml version="1.0" standalone="no"?><!DOCTYPE svg PUBLIC "-//W3C//DTD SVG 1.1//EN" "http://www.w3.org/Graphics/SVG/1.1/DTD/svg11.dtd"><svg t="1642772244833" class="icon" viewBox="0 0 1024 1024" version="1.1" xmlns="http://www.w3.org/2000/svg" p-id="1260" xmlns:xlink="http://www.w3.org/1999/xlink" width="200" height="200"><defs><style type="text/css"></style></defs><path d="M516.77 377.32c-93.63 0-154.07-23.4-156.6-24.4a28.06 28.06 0 0 1 20.51-52.23c0.71 0.27 54 20.52 136.09 20.52 80.78 0 124.48-19.62 124.91-19.82l-0.15 0.07 24 50.72c-2.15 1.02-54.16 25.14-148.76 25.14z" fill="#FF9600" p-id="1261"></path><path d="M771.13 939.46H278.5c-65.47 0-114.61-22.63-146-67.28-28.83-40.94-37.6-93.11-42-134 0-0.42-0.08-0.83-0.1-1.25C76.63 519 265.74 380.67 324 343.46a30.88 30.88 0 0 0 6.94-46c-9.27-10.94-26.82-21.81-43.8-32.32-19.12-11.84-38.88-24.08-52.52-39.62-19.65-22.4-23.37-48.93-10.49-74.7 12.15-24.3 33.12-41 60.64-48.26 19.64-5.19 42.85-5.68 69-1.48 25.25 4.07 48.45 11.75 63.15 17.33a196 196 0 0 1 102.5-33.75 144.85 144.85 0 0 1 101.34 35.23 403.56 403.56 0 0 1 53.77-15.47c23.47-4.87 44.38-6.42 62.16-4.54 26.51 2.77 46.77 12.94 60.2 30.2s18.89 34.77 16.19 51.94c-4.68 29.67-30.83 47.45-58.51 66.27-19.77 13.44-40.22 27.35-54.21 45.65a30.86 30.86 0 0 0 9.1 45.57c38.45 21.95 230.23 143.83 224.8 386.14-1 45-8.9 84.05-23.46 116-12.48 27.35-29.8 49.6-51.62 66.22-37.8 28.84-76.72 31.47-87.75 31.59zM146.29 732.8c3.71 34.06 10.74 76.83 32 107.07 20.89 29.66 52.72 43.48 100.17 43.48H771c3.5-0.06 29.33-1.13 54.18-20.09 33.69-25.71 51.53-72.43 53-138.87 4.71-210.49-162.91-317-196.56-336.17a87 87 0 0 1-25.8-128.4c19.5-25.49 46-43.48 67.22-57.93 10.38-7.06 20.18-13.73 27-19.77 6-5.37 7.37-8.17 7.6-8.77-0.11-0.61-0.82-3.42-5-8.81-7.89-10.16-32.53-12.15-65.9-5.33-32.37 6.62-61.36 19.08-61.65 19.2-12 5.21-25.71 1.89-33.44-8.68-2-2.46-26-30.72-70-29-50.16 2-80.74 29.84-81 30.12a28.08 28.08 0 0 1-31.2 5.15c-0.27-0.13-31.38-14.3-65.51-19.63-36.81-5.75-60.22 0.84-69.59 19.57-3.11 6.23-1.35 8.22 2.49 12.6 8.11 9.25 24.26 19.25 39.87 28.92 20.68 12.81 42.07 26 57.09 43.77a87 87 0 0 1-19.57 129.52c-51.7 33.01-219.3 155.12-207.94 342.05z" fill="#142E4F" p-id="1262"></path><path d="M599 645.69H425a28.06 28.06 0 1 1 0-56.11h174a28.06 28.06 0 1 1 0 56.11zM595.28 724.1H428.72a28.06 28.06 0 0 1 0-56.11h166.56a28.06 28.06 0 0 1 0 56.11z" fill="#FF9600" p-id="1263"></path><path d="M512 808a28.06 28.06 0 0 1-28.06-28V617.63a28.06 28.06 0 0 1 56.12 0V780A28.06 28.06 0 0 1 512 808z" fill="#FF9600" p-id="1264"></path><path d="M511.06 622.42A48.11 48.11 0 0 1 479.74 611l-75.8-64.81a28.06 28.06 0 1 1 36.47-42.65l70.65 60.42 72.53-62a28.06 28.06 0 1 1 36.47 42.65L542.39 611a48.12 48.12 0 0 1-31.33 11.42z" fill="#FF9600" p-id="1265"></path></svg>